<svg width="16" height="13" viewBox="0 0 16 13" fill="none" xmlns="http://www.w3.org/2000/svg">
<g id="Group 3">
<path id="Vector" d="M13.1309 10.6883C13.1309 11.1071 12.9645 11.5087 12.6684 11.8048C12.3723 12.1009 11.9707 12.2673 11.5519 12.2673C11.1331 12.2673 10.7315 12.1009 10.4354 11.8048C10.1393 11.5087 9.97296 11.1071 9.97296 10.6883C9.97296 10.2696 10.1393 9.86795 10.4354 9.57184C10.7315 9.27573 11.1331 9.10938 11.5519 9.10938C11.9707 9.10938 12.3723 9.27573 12.6684 9.57184C12.9645 9.86795 13.1309 10.2696 13.1309 10.6883Z" stroke="#4D4D4F" stroke-linecap="round" stroke-linejoin="round"/>
<path id="Vector_2" d="M5.23633 10.6883C5.23633 11.1071 5.06997 11.5087 4.77386 11.8048C4.47775 12.1009 4.07614 12.2673 3.65738 12.2673C3.23862 12.2673 2.83701 12.1009 2.5409 11.8048C2.24479 11.5087 2.07843 11.1071 2.07843 10.6883C2.07843 10.2696 2.24479 9.86795 2.5409 9.57184C2.83701 9.27573 3.23862 9.10938 3.65738 9.10938C4.07614 9.10938 4.47775 9.27573 4.77386 9.57184C5.06997 9.86795 5.23633 10.2696 5.23633 10.6883Z" stroke="#4D4D4F" stroke-linecap="round" stroke-linejoin="round"/>
<path id="Vector_3" d="M13.1316 10.6885H14.7105V7.53063M15.5 1.21484H6.81579V10.6885M9.97368 10.6885H5.23684M2.07895 10.6885H0.499999V5.95169M0.499999 5.95169H6.81579M0.499999 5.95169L2.86842 2.00432H6.81579" stroke="#4D4D4F" stroke-linecap="round" stroke-linejoin="round"/>
<path id="Vector_4" d="M14.7109 4.375H11.553" stroke="#4D4D4F" stroke-linecap="round" stroke-linejoin="round"/>
</g>
</svg>
